<?xml version="1.0" encoding="UTF-8" standalone="no"?>
<svg
   xmlns:dc="http://purl.org/dc/elements/1.1/"
   xmlns:cc="http://creativecommons.org/ns#"
   xmlns:rdf="http://www.w3.org/1999/02/22-rdf-syntax-ns#"
   xmlns:svg="http://www.w3.org/2000/svg"
   xmlns="http://www.w3.org/2000/svg"
   xmlns:sodipodi="http://sodipodi.sourceforge.net/DTD/sodipodi-0.dtd"
   xmlns:inkscape="http://www.inkscape.org/namespaces/inkscape"
   version="1.1"
   id="Your_Icon"
   x="0px"
   y="0px"
   width="100px"
   height="100px"
   viewBox="0 0 100 100"
   enable-background="new 0 0 100 100"
   xml:space="preserve"
   inkscape:version="0.48.3.1 r9886"
   sodipodi:docname="shirt.svg"><metadata
   id="metadata9"><rdf:RDF><cc:Work
       rdf:about=""><dc:format>image/svg+xml</dc:format><dc:type
         rdf:resource="http://purl.org/dc/dcmitype/StillImage" /></cc:Work></rdf:RDF></metadata><defs
   id="defs7" /><sodipodi:namedview
   pagecolor="#ffffff"
   bordercolor="#666666"
   borderopacity="1"
   objecttolerance="10"
   gridtolerance="10"
   guidetolerance="10"
   inkscape:pageopacity="0"
   inkscape:pageshadow="2"
   inkscape:window-width="1366"
   inkscape:window-height="722"
   id="namedview5"
   showgrid="false"
   inkscape:zoom="2.36"
   inkscape:cx="-73.730076"
   inkscape:cy="50"
   inkscape:window-x="0"
   inkscape:window-y="22"
   inkscape:window-maximized="1"
   inkscape:current-layer="Your_Icon" />
<path
   d="M99.218,28.051L87.593,6.47c-0.076-0.138-0.205-0.241-0.361-0.281L63.843,0.164c-0.245-0.076-0.514,0.049-0.638,0.272  c-0.027,0.049-2.959,4.949-13.236,4.949c-10.26,0-12.933-4.762-12.959-4.807c-0.125-0.236-0.384-0.375-0.652-0.29L12.849,6.43  c-0.152,0.04-0.286,0.143-0.357,0.281L0.786,28.229c-0.084,0.152-0.094,0.33-0.027,0.486c0.067,0.161,0.201,0.281,0.362,0.331  c0.026,0.009,2.82,0.875,8.559,3.976c5.181,2.793,8.684,5.623,8.72,5.649c0.139,0.112,0.312,0.147,0.473,0.121  c0.165-0.036,0.312-0.138,0.393-0.29l3.437-6.323c0.799,11.419,1.557,26.882,0.991,39.333c-0.179,3.994-0.848,25.896-0.857,26.115  c-0.009,0.29,0.205,0.544,0.491,0.584c0.121,0.014,12.027,1.646,27.624,1.646c9.166,0,17.797-0.558,25.66-1.646  c0.285-0.04,0.5-0.294,0.491-0.584c-0.01-0.219-0.679-22.121-0.857-26.115c-0.571-12.531,0.201-28.102,1.009-39.597l3.489,6.409  c0.081,0.151,0.224,0.254,0.389,0.29c0.17,0.026,0.344-0.009,0.469-0.121c0.035-0.027,3.543-2.856,8.725-5.65  c5.738-3.102,8.527-3.967,8.555-3.976c0.169-0.049,0.299-0.169,0.365-0.326C99.307,28.381,99.298,28.203,99.218,28.051z"
   id="path3" />
<path
   style="fill:#ffffff"
   d="m 42.583296,53.753199 c -2.635597,-1.474396 -4.767477,-3.758216 -6.25,-6.695439 -2.552327,-5.056753 -2.798502,-8.872721 -0.920282,-14.265323 1.381612,-3.966777 2.670282,-5.86596 2.670282,-3.935338 0,1.558091 5.255559,1.494732 6.912395,-0.08333 1.071479,-1.020539 1.183519,-0.824088 0.61034,1.070173 -0.555505,1.835851 -0.26585,2.434243 1.387605,2.866631 2.668832,0.697916 2.636645,0.901765 -0.618753,3.918766 -3.721514,3.448983 -2.198744,6.014685 3.330894,5.612191 3.642821,-0.265155 3.760027,-0.189495 1.936389,1.25 -1.067621,0.842732 -2.755121,1.532239 -3.75,1.532239 -0.994878,0 -1.80887,0.401855 -1.80887,0.893011 0,1.841924 6.029113,2.80052 9.422922,1.498193 1.677737,-0.643808 3.987635,-5.084227 4.990159,-9.5928 0.78055,-3.510305 -1.96552,-9.273452 -5.098967,-10.701145 -3.0633,-1.395733 -8.857214,-1.412152 -11.435294,-0.03241 -1.094334,0.585669 -2.52725,0.883208 -3.184259,0.661198 -0.657008,-0.222011 0.245592,-1.151195 2.005779,-2.064854 4.841669,-2.513161 10.044064,-2.075773 16.010548,1.346076 4.353419,2.496738 5.390622,3.655988 6.303143,7.044832 4.031574,14.972124 -9.610807,26.895604 -22.514031,19.677327 z"
   id="path3014"
   inkscape:connector-curvature="0" /></svg>